Coordinates
version=1
nRows=14
nColumns=36
inDegrees=yes

Units are S.I. units (second, meters, Newtons, ...)
If the header above contains a line with 'inDegrees', this indicates whether rotational values are in degrees (yes) or radians (no).

endheader
time	pelvis_tilt	pelvis_list	pelvis_rotation	pelvis_tx	pelvis_ty	pelvis_tz	hip_flexion_r	hip_adduction_r	hip_rotation_r	knee_angle_r	knee_angle_r_beta	ankle_angle_r	subtalar_angle_r	mtp_angle_r	hip_flexion_l	hip_adduction_l	hip_rotation_l	knee_angle_l	knee_angle_l_beta	ankle_angle_l	subtalar_angle_l	mtp_angle_l	lumbar_extension	lumbar_bending	lumbar_rotation	arm_flex_r	arm_add_r	arm_rot_r	elbow_flex_r	pro_sup_r	arm_flex_l	arm_add_l	arm_rot_l	elbow_flex_l	pro_sup_l
      0.00000000	     -5.65171847	     -3.30365809	      2.69909863	      0.95658470	      0.92876105	      0.22676965	      1.92085823	     -3.17093116	     -5.69533289	      3.62342237	      0.06324065	      7.04460245	      4.03866031	     -6.07335103	      0.03377315	     -8.40257839	      3.27704615	      1.69011337	      0.02949804	     10.31548119	     -1.51806394	     -6.07335103	     15.82726517	      1.37890339	     -8.53800902	     32.10940631	      4.07167915	     54.41646360	    119.25262922	     67.58877707	     45.94934948	      8.70062496	     66.65415384	    113.16598068	     67.70019222
      0.01666670	     -4.25823162	     -2.26762349	      1.97714188	      0.95565410	      0.92572545	      0.22665666	      0.66678040	     -4.71830420	     -3.56741640	      3.74765000	      0.06540883	      8.86659685	      4.21249850	     -6.76290871	     -2.15007776	     -7.53605133	      3.53291836	      1.36329641	      0.02379401	     10.52334946	     -1.10742848	     -6.76290871	     13.98198474	      1.15058249	     -8.17152845	     37.45902815	      1.82694394	     63.62378823	    124.96223006	     84.43922906	     47.79542300	      6.02091594	     62.99714484	    118.30701924	     88.07485481
      0.03333330	     -2.52841312	     -2.23664682	      2.32929643	      0.95442125	      0.93027034	      0.22700072	     -0.97267701	     -4.88649847	     -3.10227814	      4.20972505	      0.07347356	     10.37585163	      5.04847693	     -7.01409296	     -4.05834380	     -7.70154167	      2.90191572	      1.35712267	      0.02368626	     10.21671734	     -1.42350670	     -7.01409296	     12.18240918	      1.12355312	     -9.86153895	     39.03290121	      3.86099933	     64.62373627	    123.95297042	     89.50436526	     48.79614790	      4.03759406	     62.70864857	    120.14738794	     96.33439675
      0.05000000	     -1.48185318	     -1.98455985	      2.52463396	      0.95283676	      0.93080480	      0.22684581	     -1.97979456	     -5.35609421	     -3.37569921	      4.29869866	      0.07502645	     11.32594900	      5.68341679	     -7.27998808	     -5.17054414	     -7.62947061	      2.41387533	      1.31656858	      0.02297846	     10.12047460	     -1.30382084	     -7.27998808	     10.90566255	      0.67252001	    -10.28403848	     39.63206688	      4.82338168	     64.67166588	    122.73856834	     91.23163134	     49.82724468	      3.42977023	     62.80793716	    120.98377495	     98.22144756
      0.06666670	     -0.84957829	     -1.63779507	      2.73635233	      0.95131831	      0.92889207	      0.22695574	     -2.57553223	     -5.84089122	     -3.58863592	      4.52285919	      0.07893878	     12.43279242	      6.20655278	     -7.39881010	     -5.77146518	     -7.42910423	      2.41819810	      1.44916223	      0.02529265	      9.94863344	     -1.24122672	     -7.39881010	     10.05570895	      0.15786737	    -10.20702130	     40.04769331	      4.97357247	     64.06238387	    121.24079136	     91.25285437	     50.72862624	      3.16372417	     62.84614961	    121.50144726	     98.12483318
      0.08333330	     -0.45870892	     -1.36421763	      3.08196625	      0.95066845	      0.93189614	      0.22729043	     -3.07008448	     -6.17177101	     -3.84163790	      4.56189869	      0.07962015	     12.81923917	      6.30116631	     -7.43342890	     -6.05462223	     -7.28478889	      2.69664038	      1.53292357	      0.02675456	      9.71908639	     -1.41389511	     -7.43342890	      9.51541703	     -0.34684184	    -10.14245318	     39.81105898	      5.13354177	     63.71438847	    120.69708794	     85.15376537	     51.16500478	      3.02409367	     63.46347017	    121.46330098	     90.49040496
      0.10000000	     -0.43118763	     -1.15136822	      3.22889632	      0.95003627	      0.92964306	      0.22757396	     -3.09416338	     -6.40902905	     -4.03736751	      4.65065687	      0.08116927	     13.00361843	      6.26187447	     -7.47357594	     -5.98794457	     -7.16938396	      2.61956451	      1.68047099	      0.02932975	      9.69207092	     -1.05720619	     -7.47357594	      9.41747005	     -0.69191375	     -9.77174487	     39.32017915	      5.10549313	     62.45005828	    120.32960440	     90.43734279	     51.41865521	      3.26008059	     63.14566930	    121.67311468	     97.41866400
      0.11666670	     -0.41028214	     -1.03042382	      3.34110415	      0.94999254	      0.93236727	      0.22787738	     -3.15824905	     -6.52895366	     -4.26999142	      4.70146796	      0.08205610	     13.06957579	      6.43727166	     -7.48018079	     -5.92899306	     -7.12793955	      2.67540430	      1.80387145	      0.03148350	      9.51264184	     -1.08533723	     -7.48018079	      9.19603804	     -0.89917021	     -9.35635258	     38.91850535	      4.79673140	     62.27485906	    120.30493528	     87.06816039	     51.62410576	      3.54215008	     63.89819103	    121.68101950	     93.37841101
      0.13333330	     -0.49858932	     -0.99357272	      3.36614337	      0.95445816	      0.93048644	      0.23073016	     -3.16757430	     -6.52113230	     -4.37036938	      4.66100428	      0.08134987	     12.90912541	      6.26965433	     -7.48052203	     -5.82992154	     -7.14770775	      2.53596203	      1.88359529	      0.03287494	      9.40005925	     -1.00864828	     -7.48052203	      9.45121924	     -0.95826793	     -8.93238703	     38.37245852	      4.66331171	     61.54060853	    120.07041178	     87.16297146	     51.36142726	      3.68135858	     64.01341302	    121.94083266	     93.65966422
      0.15000000	     -0.68992470	     -0.97765675	      3.35471085	      0.95450613	      0.93061450	      0.23089935	     -2.99965818	     -6.48863493	     -4.30503094	      4.66700959	      0.08145468	     12.69423853	      5.95135810	     -7.48373920	     -5.59853890	     -7.17373912	      2.31059943	      1.96681475	      0.03432739	      9.25936486	     -0.75583851	     -7.48373920	      9.70954233	     -1.09682195	     -8.49122684	     37.87088270	      4.81388972	     61.04744134	    120.33085720	     84.83152970	     51.15341612	      3.92676860	     64.32690344	    122.04105346	     91.03963247
      0.16666670	     -0.74314415	     -0.90384843	      3.40299405	      0.95007468	      0.92994886	      0.22836304	     -3.01379182	     -6.53344256	     -4.46061931	      4.60504262	      0.08037316	     12.70786223	      5.90409897	     -7.48379876	     -5.50784896	     -7.11049471	      2.25034299	      2.05751670	      0.03591044	      9.15791777	     -0.77604689	     -7.48379876	      9.77831857	     -1.20090583	     -8.42747833	     37.84813432	      5.05396885	     61.06391202	    120.28416512	     84.89242863	     51.09767852	      4.44823974	     64.44469410	    122.09794164	     91.12538994
      0.18333330	     -1.00566740	     -0.84969368	      3.44935274	      0.95044189	      0.92995565	      0.22844350	     -2.77709406	     -6.56031463	     -4.60097482	      4.60968474	      0.08045418	     12.66655490	      5.88248106	     -7.49212273	     -5.16994509	     -7.04505931	      2.30295272	      2.17909699	      0.03803242	      9.00471426	     -0.79527729	     -7.49212273	      9.95992320	     -1.40647992	     -7.95351631	     37.46416798	      4.73343985	     60.24132732	    120.72759818	     88.49487838	     51.19910768	      5.09441179	     64.84293734	    121.70575994	     94.88604027
      0.20000000	     -1.18108112	     -0.81536212	      3.47895972	      0.95058097	      0.92973668	      0.22847357	     -2.63320720	     -6.55503513	     -4.69548618	      4.60131133	      0.08030803	     12.66652572	      5.87941007	     -7.49308911	     -4.93932186	     -6.99633851	      2.38892653	      2.26834596	      0.03959011	      8.96948502	     -0.93325552	     -7.49308911	     10.12255142	     -1.52479303	     -7.92034781	     37.26614744	      4.70087716	     59.71454157	    120.93746054	     87.93364404	     51.09769273	      5.38589087	     64.88643669	    121.50134243	     94.25232367
      0.21666670	     -1.37438876	     -0.79011045	      3.52067266	      0.95100265	      0.93215030	      0.22867676	     -2.46513668	     -6.53719765	     -4.66508196	      4.61820802	      0.08060294	     12.59602254	      5.72300425	     -7.49681846	     -4.70478124	     -6.96341615	      2.29427814	      2.31053823	      0.04032650	      8.87927987	     -0.70035201	     -7.49681846	     10.28014830	     -1.59765670	     -7.86769996	     37.09034387	      4.76094005	     59.94449722	    121.00859147	     88.83392929	     50.85158358	      5.76469669	     65.23388096	    121.42399130	     94.27096162
